<?xml version="1.0" encoding="UTF-8" standalone="no"?>
<svg xmlns:dc="http://purl.org/dc/elements/1.1/" xmlns:cc="http://creativecommons.org/ns#" xmlns:rdf="http://www.w3.org/1999/02/22-rdf-syntax-ns#" xmlns:svg="http://www.w3.org/2000/svg" xmlns="http://www.w3.org/2000/svg" xmlns:xlink="http://www.w3.org/1999/xlink" xmlns:sodipodi="http:>    <rect width="800" height="480" id="rect3855" fill="white" />

    <g transform="scale(0.75) translate(295,220)" id="currentweather">
        <use id="currentweathericon" href="icons/ICON_ONE.svg" />
    </g>

    <g transform="scale(0.75) translate(305,432)" id="forecastweather">
        <use id="forecastweathericon" href="icons/ICON_TWO.svg" />
    </g>

    <text id="alertmessage" x="0" y="35" font-size="30px" style="font-weight:bold;font-size:30px;line-height:0%;font-family:'Nimbus Mono PS',monospace;text-anchor:beginning">ALERT_MESSAGE</text>
    <text id="now" x="35" y="180" font-size="38px" style="font-size:28px;line-height:0%;font-family:sans-serif;text-anchor:beginning">Now:</text>
    <text id="tempcurrent" x="55" y="240" font-size="38px" style="font-size:55px;line-height:0%;font-family:sans-serif;text-anchor:beginning">TEMP_NOW</text>
    <text id="weatherdesc1" x="155" y="283" font-size="38px" style="font-size:30px;line-height:0%;font-family:sans-serif;text-anchor:middle">WEATHER_DESC_1</text>
    <text id="weatherdesc2" x="155" y="311" font-size="38px" style="font-size:30px;line-height:0%;font-family:sans-serif;text-anchor:middle">WEATHER_DESC_2</text>
    <text id="todaytonight" x="35" y="338" font-size="38px" style="font-size:28px;line-height:0%;font-family:sans-serif;text-anchor:beginning">TODAY_TONIGHT</text>
    <text id="temphighlow" x="25" y="388" font-size="38px" style="font-size:38px;line-height:0%;font-family:sans-serif;text-anchor:beginning">HIGH_ONE/LOW_ONE</text>
    <text id="weatherdesc3" x="155" y="435" font-size="38px" style="font-size:30px;line-height:0%;font-family:sans-serif;text-anchor:middle">WEATHER_DESC_3</text>
    <text id="weatherdesc4" x="155" y="463" font-size="38px" style="font-size:30px;line-height:0%;font-family:sans-serif;text-anchor:middle">WEATHER_DESC_4</text>
    <path d="m 345.08466,410.8254 v 70 h 3 v -305.5 h -3 z" id="divider" inkscape:connector-curvature="0" />

    <g id="calendaricon" transform="scale(0.1) translate(3700,1540)">
        <path style="fill:#090509" d="M 506.645,89.372 C 502.609,76.437 491.008,66.87 476.738,66.87 h -31.782 v 49.326 c 0,26.284 -21.39,47.674 -47.674,47.674 -26.284,0 -47.674,-21.39 -47.674,-47.674 V 66.87 H 158.753 v 49.326 c 0,26.284 -21.39,47.674 -47.674,47.674 -26.284,0 -47.674,>        <path style="fill:#090509" d="m 111.08,132.088 c 8.772,0 15.891,-7.119 15.891,-15.891 V 15.891 C 126.971,7.119 119.852,0 111.08,0 102.308,0 95.189,7.119 95.189,15.891 v 100.306 c 0,8.772 7.119,15.891 15.891,15.891 z" id="path134" inkscape:connector-curvature="0" />
        <path style="fill:#090509" d="m 397.281,132.088 c 8.74,0 15.891,-7.119 15.891,-15.891 V 15.891 C 413.172,7.119 406.021,0 397.281,0 388.541,0 381.39,7.119 381.39,15.891 v 100.306 c 0,8.772 7.151,15.891 15.891,15.891 z" id="path136" inkscape:connector-curvature="0" />
    </g>

    <text id="calendarentry1" x="360" y="215" font-size="30px" style="font-size:30px;line-height:0%;font-family:sans-serif;text-anchor:beginning;overflow:ellipsis">
        <tspan x="360" dy="28" style="font-size:28px;">CAL_DATETIME_1</tspan>
        <tspan style="font-weight:bold;" x="360" dy="28"><![CDATA[CAL_DESC_1]]></tspan>
    </text>

    <text id="calendarentry2" x="360" y="280" font-size="30px" style="font-size:30px;line-height:0%;font-family:sans-serif;text-anchor:beginning;overflow:ellipsis">
        <tspan x="360" dy="28" style="font-size:28px;">CAL_DATETIME_2</tspan>
        <tspan style="font-weight:bold;" x="360" dy="28"><![CDATA[CAL_DESC_2]]></tspan>
    </text>

    <text id="calendarentry3" x="360" y="345" font-size="30px" style="font-size:30px;line-height:0%;font-family:sans-serif;text-anchor:beginning;overflow:ellipsis">
        <tspan x="360" dy="28" style="font-size:28px;">CAL_DATETIME_3</tspan>
        <tspan style="font-weight:bold;" x="360" dy="28"><![CDATA[CAL_DESC_3]]></tspan>
    </text>

    <text id="calendarentry4" x="360" y="410" font-size="30px" style="font-size:30px;line-height:0%;font-family:sans-serif;text-anchor:beginning;overflow:ellipsis">
        <tspan x="360" dy="28" style="font-size:28px;">CAL_DATETIME_4</tspan>
        <tspan style="font-weight:bold;" x="360" dy="28"><![CDATA[CAL_DESC_4]]></tspan>
    </text>

    <text id="textday" x="615" y="85" style="text-anchor:middle;font-weight:600;font-size:55px;line-height:0%;font-family:sans-serif;">DAY_NAME</text>

    <text id="textdate" x="615" y="145" style="text-anchor:middle;font-size:45px;line-height:0%;font-family:sans-serif;">DAY_ONE</text>

    <text id="texttime" x="60" y="122" font-size="TIME_NOW_FONT_SIZE" style="font-weight:bold;line-height:0%;font-family:sans-serif;text-anchor:beginning">TIME_NOW</text>

    <use id="customdata" href="screen-output-custom-temp.svg" />

</svg>
